<?xml version="1.0" encoding="utf-8"?>
<!-- Generator: Adobe Illustrator 16.0.0, SVG Export Plug-In . SVG Version: 6.00 Build 0)  -->
<!DOCTYPE svg PUBLIC "-//W3C//DTD SVG 1.1//EN" "http://www.w3.org/Graphics/SVG/1.1/DTD/svg11.dtd">
<svg version="1.1" id="Capa_1" xmlns="http://www.w3.org/2000/svg" xmlns:xlink="http://www.w3.org/1999/xlink" x="0px" y="0px"
	 width="561.002px" height="561.002px" viewBox="0 0 561.002 561.002" enable-background="new 0 0 561.002 561.002"
	 xml:space="preserve">
<g>
	<g>
		<path fill="#AAAAAA" d="M280.501,561.002c154.668,0,280.501-125.834,280.501-280.5C561.002,125.833,435.169,0,280.501,0
			S0,125.831,0,280.502C0,435.172,125.833,561.002,280.501,561.002z M280.501,21.42c27.457,0,53.914,4.33,78.766,12.28
			c-7.095,10.101-8.178-4.005-10.371,1.885c-2.25,6.034-7.793,7.852-9.399,7.772c-3.168,4.776-6.074,9.792-9.211,14.455
			c-3.32,0.603-6.388,1.221-9.478,1.689c-1.264,0.193-2.19,0.673-3.015,1.655c-3.378,4.021-6.854,7.962-10.231,11.983
			c-2.965,3.528-5.843,7.13-8.768,10.686c-0.396,0.48-0.869,0.894-1.298,1.331c-2.249-0.82-4.021-2.105-5.646-3.626
			c-2.811-2.632-4.783-5.829-6.268-9.342c-1.982-4.7-3.105-9.614-3.673-14.685c-0.168-1.521-0.045-2.882,0.521-4.299
			c1.814-4.529,3.502-9.109,5.334-13.629c0.529-1.307,0.354-2.28-0.707-3.299c-3.207,0.166-6.493-0.737-9.869,0.318
			c0.333,0.786,0.6,1.466,0.903,2.126c1.037,2.258,2.099,4.507,3.121,6.775c0.211,0.471,0.282,1.01,0.429,1.551
			c-2.871,2.209-5.701,4.269-8.394,6.494c-2.684,2.218-5.064,4.795-7.885,6.995c-1.337-2.564-3.424-4.217-5.572-5.792
			c-3.596-2.641-2.344-2.188-6.812-2.038c-3.03,0.101-6.047,0.294-8.898,1.558c-1.54,0.682-3.231,0.658-4.899,0.569
			c-1.267-0.067-2.319-0.544-3.087-1.573c-0.22-0.293-0.401-0.621-0.625-0.912c-0.709-0.918-1.673-1.16-2.717-0.805
			c-0.863,0.294-1.735,0.664-2.485,1.175c-1.289,0.881-2.558,1.821-3.7,2.879c-1.429,1.325-2.965,2.473-4.599,3.516
			c-2.485,1.582-4.936,3.222-7.436,4.783c-0.924,0.578-1.487,1.273-1.644,2.384c-0.242,1.729-0.719,3.43-0.896,5.165
			c-0.236,2.292-0.303,4.603,0.453,6.845c1.01,2.999,3.583,4.315,6.561,3.216c3.559-1.316,6.897-3.069,9.877-5.444
			c1.974-1.573,3.608-3.418,4.514-5.829c0.159-0.429,0.352-0.854,0.6-1.236c0.536-0.83,1.218-1.041,2.121-0.646
			c0.759,0.331,1.481,0.741,2.228,1.099c1.879,0.9,3.751,0.857,5.551-0.174c0.955-0.544,1.866-1.181,2.72-1.875
			c0.783-0.637,1.472-1.393,2.182-2.115c1.178-1.2,2.54-2.133,4.091-2.763c2.919-1.181,5.012-0.64,6.689,1.986
			c1.279,1.999,2.919,3.528,4.853,4.829c0.835,0.563,1.653,1.181,2.381,1.876c1.154,1.099,1.518,2.454,1.142,4.039
			c-0.413,1.738-1.276,3.244-2.207,4.731c-0.78,1.249-1.585,2.488-2.286,3.782c-0.343,0.633-0.548,1.365-0.688,2.078
			c-0.15,0.756,0.548,1.521,1.312,1.392c0.988-0.165,1.946-0.505,2.919-0.771c0.578-0.156,1.154-0.315,2.017-0.551
			c-0.325,5.737-1.19,11.041-3.944,15.881c-0.496,0.872-1.12,1.71-1.836,2.405c-2.05,1.989-4.474,2.815-7.338,2.114
			c-1.989-0.486-3.81-1.203-5.374-2.631c-3.063-2.8-5.894-2.473-8.65,0.529c-0.863,0.939-1.622,2.026-2.207,3.158
			c-0.609,1.181-1.496,1.762-2.711,2.093c-5.389,1.457-10.842,2.075-16.402,1.337c-0.933-0.125-1.793-0.08-2.708,0.196
			c-3.522,1.062-7.065,2.044-10.603,3.051c-1.42,0.404-2.76,0.961-4.033,1.741c-2.359,1.45-4.851,2.653-7.494,3.485
			c-2.684,0.844-5.386,1.303-7.98-0.569c-8.427,7.041-17.803,12.188-28.259,15.521c-0.618,3.914-1.218,7.72-1.821,11.53
			c-0.731,4.639-1.453,9.278-2.2,13.914c-0.19,1.169-0.667,1.622-1.745,1.799c-1.261,0.205-2.451-0.013-3.283-1.004
			c-0.82-0.976-1.597-2.032-2.176-3.161c-1.481-2.895-2.375-6.022-2.714-9.229c-0.478-4.486-2.84-7.516-6.711-9.453
			c-5.088-2.549-10.539-3.403-16.12-2.42c-9.174,1.613-17.02,5.899-23.333,12.748c-5.336,5.786-5.278,5.786-6.769,13.794
			c-0.52,2.794-0.584,5.688,0.309,8.488c0.918,2.874,2.8,4.654,5.792,5.294c1.558,0.333,3.088,0.48,4.651,0.147
			c1.708-0.364,6.251-1.264,6.705-1.083c1.291,0.521,2.436,1.31,3.292,2.436c1.083,1.426,1.389,2.962,0.63,4.663
			c-0.575,1.292-1.389,2.412-2.442,3.311c-1.328,1.132-5.398,4.009-5.93,4.504c-2.262,2.114-2.225,4.651,0.088,6.665
			c0.551,0.48,1.188,0.869,1.806,1.267c0.526,0.34,1.083,0.63,1.708,0.985c-0.153,1.671-0.26,3.225-0.447,4.771
			c-0.483,4.042-0.505,8.1-0.288,12.148c0.208,3.871,1.882,7.136,5.04,9.434c2.078,1.512,4.302,2.843,6.561,4.073
			c1.273,0.695,2.721,1.123,4.134,1.494c4.165,1.086,7.889,0.153,10.906-2.919c1.276-1.297,2.307-2.861,3.284-4.413
			c1.805-2.87,4.434-4.079,7.742-3.412c1.778,0.358,3.314,1.23,4.553,2.463c1.545,1.533,3.391,2.497,5.3,3.415
			c2.57,1.236,5.116,2.524,7.702,3.73c0.906,0.422,1.875,0.74,2.846,0.988c7.273,1.836,13.51,5.349,18.112,11.383
			c0.955,1.248,2.044,1.946,3.482,2.451c6.833,2.396,13.109,5.839,18.721,10.432c7.075,5.792,12.387,12.849,15.117,21.662
			c0.643,2.069,1.561,3.812,3.121,5.373c1.481,1.483,2.714,3.264,3.828,5.057c1.502,2.42,2.788,4.976,4.17,7.474
			c0.349,0.629,0.71,1.254,1.019,1.793c1.328,0.266,2.503,0.477,3.669,0.735c7.791,1.738,15.138,4.562,21.796,9.031
			c3.461,2.324,6.552,5.066,9.229,8.279c0.737,0.885,1.166,1.787,1.184,2.979c0.159,10.502-3.653,19.035-12.414,25.101
			c-1.126,0.78-1.799,1.721-2.265,2.989c-2.255,6.136-4.562,12.25-6.903,18.353c-0.422,1.102-0.985,2.184-1.665,3.147
			c-3.084,4.363-6.267,8.66-9.339,13.029c-0.985,1.402-2.166,2.488-3.666,3.268c-1.142,0.595-2.277,1.214-3.439,1.765
			c-4.26,2.014-8.718,3.446-13.33,4.396c-1.218,0.252-2.176,0.719-2.971,1.775c-3.051,4.045-6.206,8.014-9.314,12.016
			c-0.34,0.437-0.692,0.873-0.952,1.355c-2.983,5.522-6.637,10.619-10.067,15.856c-0.774,1.185-1.729,2.109-2.904,2.89
			c-4.991,3.305-9.972,6.629-14.917,10.01c-1.435,0.981-2.803,2.096-4.073,3.285c-2.488,2.33-4.911,4.733-7.31,7.153
			c-0.634,0.642-1.227,1.394-1.604,2.201c-2.326,5.011-4.562,10.062-6.888,15.074c-0.496,1.066-0.584,2.086-0.37,3.209
			c1.57,8.324,3.127,16.646,4.667,24.978c0.177,0.967,0.382,1.948,0.37,2.938c-2.105,0.084-2.111,0.09-4.116-0.762
			c-3.516-1.492-6.597-3.66-9.434-6.183c-6.484-5.762-11.401-12.75-15.737-20.188c-0.404-0.691-0.609-1.541-0.726-2.349
			c-0.96-6.561-1.894-13.122-2.8-19.688c-0.116-0.852-0.398-1.576-0.872-2.283c-1.092-1.637-1.582-3.498-1.943-5.416
			c-0.851-4.52-0.349-8.996,0.315-13.475c0.787-5.281,1.591-10.56,2.387-15.838c0.113-0.746,0.058-1.42-0.428-2.08
			c-1.3-1.775-1.686-3.844-1.809-5.994c-0.232-4.103,0.483-8.07,1.521-12.008c0.373-1.42,0.707-2.859,0.921-4.31
			c0.704-4.735,1.359-9.479,2.007-14.223c0.272-1.996,0.48-3.996,0.704-5.889c-0.429-0.392-0.692-0.65-0.973-0.888
			c-2.653-2.225-4.202-5.069-4.85-8.448c-0.459-2.384-0.456-4.765-0.019-7.14c0.331-1.787,0.753-3.555,1.139-5.356
			c-0.931-0.642-1.769-1.199-2.592-1.781c-4.005-2.83-7.735-5.977-10.854-9.779c-3.213-3.918-6.393-7.867-9.483-11.879
			c-1.23-1.596-2.338-3.326-3.247-5.123c-1.481-2.932-2.212-6.057-1.463-9.362c0.174-0.767,0.021-1.437-0.232-2.146
			c-1.897-5.315-2.127-10.813-1.695-16.369c0.297-3.821,1.312-7.426,3.488-10.646c1.34-1.983,2.613-4.015,3.99-5.973
			c2.436-3.467,4.908-6.912,7.405-10.333c2.442-3.348,3.825-7.093,4.541-11.147c0.324-1.833,0.523-3.66,0.343-5.499
			c-0.278-2.846-1.267-5.346-3.727-7.096c-2.699-1.918-5.3-3.981-8.036-5.848c-1.414-0.964-2.075-2.206-2.448-3.8
			c-0.881-3.764-1.919-7.491-2.772-11.261c-0.303-1.337-0.863-2.362-1.916-3.225c-1.637-1.347-3.198-2.782-4.78-4.192
			c-0.609-0.545-1.188-1.12-1.769-1.674c0.122-3.5,1.068-6.814,1.126-10.285c-0.924-0.389-1.763-0.737-2.595-1.092
			c-4.165-1.784-8.112-3.941-11.653-6.796c-2.167-1.747-4.106-3.708-5.59-6.077c-1.916-3.06-2.864-6.346-2.308-9.997
			c0.389-2.549,0.686-5.11,1.01-7.668c0.257-2.01,0.508-4.021,0.731-6.034c0.037-0.324,0.101-0.765-0.44-0.823
			c0,0,1.787-3.182-5.946-12.714c-0.581-0.716-1.077-1.478-1.533-2.258C109.774,68.376,189.735,21.42,280.501,21.42z
			 M414.685,502.055c5.975-6.248,10.169-12.963,6.246-18.194c-2.167-2.084-1.995-4.574-1.136-7.146
			c0.496-1.481,0.946-2.992,1.576-4.416c1.9-4.291,3.88-8.549,5.835-12.813c2.147-4.687,4.297-9.371,6.454-14.054
			c1.325-2.873,1.506-5.825,0.832-8.899c-0.786-3.597-1.466-7.217-2.19-10.826c-0.72-3.584-0.766-7.152,0.472-10.635
			c2.335-6.576,5.482-12.662,10.574-17.603c1.585-1.535,3.056-3.199,4.486-4.883c1.863-2.191,3.28-4.664,4.29-7.365
			c1.285-3.434,1.747-6.916,1.031-10.571c-0.554-2.824-1.563-5.48-2.494-8.175c-0.78-2.262-1.609-4.508-2.276-6.803
			c-1.074-3.695-1.229-7.463-0.214-11.192c0.651-2.394,1.499-4.736,2.331-7.078c0.863-2.427,1.85-4.81,2.715-7.236
			c1.126-3.154,1.767-6.416,1.44-9.768c-0.22-2.279-0.614-4.562-1.162-6.787c-0.588-2.39-1.606-2.82-3.838-1.939
			c-0.854,0.336-1.681,0.75-2.524,1.111c-2.622,1.123-4.279,0.635-5.59-1.265c-0.977-1.413-2.418-2.262-4.066-2.692
			c-1.421-0.373-2.85-0.838-4.3-0.943c-4.878-0.352-9.759-0.156-14.64,0.14c-3.583,0.213-7.176,0.323-10.762,0.389
			c-1.09,0.018-2.19-0.228-3.271-0.426c-2.916-0.539-5.65-1.607-8.318-2.877c-4.856-2.308-9.245-5.337-13.446-8.652
			c-6.812-5.381-12.922-11.531-19.164-17.535c-0.836-0.805-1.355-1.769-1.633-2.834c-0.346-1.33-0.629-2.695-0.748-4.063
			c-0.543-6.297,0.234-12.506,1.386-18.681c1.233-6.613,2.944-13.109,4.826-19.562c1.062-3.642,1.649-7.359,1.62-11.169
			c-0.012-1.588-0.127-3.14-0.969-4.532c-0.738-1.221-0.705-2.488-0.154-3.709c0.91-2.01,1.772-4.066,2.927-5.933
			c3.903-6.319,9.562-10.371,16.711-12.295c1.585-0.428,2.806-1.144,3.847-2.426c2.665-3.296,5.483-6.469,8.137-9.771
			c0.918-1.142,1.971-1.809,3.356-2.212c4.148-1.203,8.271-2.503,12.398-3.776c3.626-1.117,7.329-1.708,11.126-1.854
			c6.892-0.27,13.607,0.52,20.059,3.02c1.083,0.419,2.14,0.459,3.24,0.444c3.871-0.058,7.736-0.101,11.579,0.52
			c3.676,0.594,7.078,1.594,10.083,4.058c5.271,4.317,10.773,8.354,16.179,12.515c2.975,2.289,2.971,2.295,6.737,2.212
			c5.717-0.128,11.423-0.128,17.054,1.086c0.238,0.052,0.514-0.073,0.939-0.144c-0.062-0.756-0.03-1.484-0.189-2.167
			c-0.582-2.516-1.242-5.025-2.506-7.289c-0.939-1.68-1.932-3.369-3.158-4.838c-2.521-3.023-5.79-4.765-9.783-5.031
			c-1.102-0.073-2.203-0.22-3.289-0.416c-3.131-0.566-5.435-2.249-6.575-5.26c-0.519-1.368-0.753-2.84-1.157-4.25
			c-0.141-0.49-0.403-0.946-0.636-1.475c-0.377,0.229-0.655,0.324-0.826,0.517c-0.493,0.548-0.955,1.12-1.401,1.705
			c-0.561,0.731-1.05,1.521-1.646,2.218c-1.94,2.271-3.498,2.127-4.899-0.438c-0.309-0.563-0.568-1.16-0.795-1.76
			c-0.328-0.859-0.591-1.744-0.909-2.607c-0.446-1.208-0.848-2.439-1.393-3.602c-1.057-2.255-2.05-2.365-3.567-0.478
			c-0.288,0.358-0.529,0.759-0.842,1.096c-0.499,0.539-0.994,1.099-1.57,1.548c-1.99,1.561-4.039,1.561-6.086,0.043
			c-0.367-0.272-0.688-0.609-1.031-0.918c-0.941-0.848-1.396-1.854-1.347-3.173c0.062-1.652,0.02-3.323-0.148-4.966
			c-0.103-0.985-0.45-1.968-0.829-2.892c-0.311-0.756-1.203-0.952-1.87-0.478c-0.67,0.471-1.275,1.034-2.021,1.646
			c-0.832-0.349-1.677-0.68-2.503-1.056c-3.602-1.637-7.188-3.311-10.805-4.917c-1.239-0.551-2.394-1.184-3.439-2.57
			c-1.942,6.484-2.12,12.864-3.045,19.248c-0.68,0.214-1.357,0.468-2.057,0.646c-3.029,0.771-6.089,1.429-9.094,2.295
			c-4.908,1.417-9.261,0.438-13.227-2.681c-2.873-2.258-5.095-5.062-6.888-8.207c-2.28-4-4.489-8.042-6.717-12.072
			c-0.261-0.471-0.456-0.976-0.698-1.502c1.022-1.132,2.359-1.573,3.534-2.249c5.383-3.091,11.09-4.917,17.391-4.299
			c0.771,0.077,1.45-0.064,2.08-0.529c0.444-0.328,0.938-0.582,1.405-0.878c2.331-1.481,4.914-2.687,6.922-4.522
			c2.077-1.9,3.619-4.397,5.346-6.671c0.71-0.937,1.595-1.778,2.031-2.962c-0.812-1.891-1.536-3.785-2.423-5.6
			c-0.727-1.481-0.869-2.968-0.609-4.556c0.312-1.906,0.604-3.822,0.846-5.738c0.089-0.694,0.392-1.453-0.298-2.188
			c-3.005-0.41-6.09-0.943-9.191-1.212c-1.487-0.128-2.354-0.744-3.032-1.971c-0.938-1.692-2.029-3.299-2.932-5.006
			c-0.638-1.202-1.569-1.713-2.855-1.845c-1.737-0.178-3.467-0.511-5.208-0.609c-1.413-0.08-2.438-0.694-3.332-1.701
			c-1.371-1.548-2.219-3.375-2.852-5.315c-0.895-2.735-1.197-5.575-1.417-8.427c-0.281-3.684-0.126-7.353,0.453-11.166
			c0.716-0.141,1.416-0.318,2.126-0.404c0.73-0.088,1.473-0.064,2.207-0.131c0.639-0.058,1.274-0.184,1.915-0.254
			c0.73-0.083,1.469-0.12,2.199-0.214c0.67-0.086,1.434,0.141,2.047-0.438c0,0,6.188,0.912,7.254-6.463
			c0.108-0.768,0.379-1.512,0.729-2.23c72.023,46.068,119.906,126.699,119.906,218.352
			C539.582,374.275,489.505,456.57,414.685,502.055z"/>
	</g>
</g>
</svg>
