<?xml version="1.0" encoding="utf-8"?>
<!-- Generator: Adobe Illustrator 16.0.0, SVG Export Plug-In . SVG Version: 6.00 Build 0)  -->
<!DOCTYPE svg PUBLIC "-//W3C//DTD SVG 1.1//EN" "http://www.w3.org/Graphics/SVG/1.1/DTD/svg11.dtd">
<svg version="1.1" id="Capa_1" xmlns="http://www.w3.org/2000/svg" xmlns:xlink="http://www.w3.org/1999/xlink" x="0px" y="0px"
	 width="401.168px" height="401.168px" viewBox="0 0 401.168 401.168" enable-background="new 0 0 401.168 401.168"
	 xml:space="preserve">
<g>
	<g>
		<path fill="#AAAAAA" d="M401.004,250.538c-0.834-5.295-4.759-9.572-9.961-10.858c-0.872-0.216-71.379-17.926-123.182-49.805
			l-56.562-56.576c-31.844-51.777-49.596-122.305-49.811-123.174c-1.286-5.203-5.565-9.128-10.859-9.962
			c-5.293-0.834-10.572,1.585-13.396,6.14l-17.078,27.542c-9.682-8.729-24.245-12.872-36.144-9.729l-0.973,0.259
			C40.87,37.292,14.092,64.07,1.175,106.237l-0.258,0.974c-2.961,13.143,1.392,27.9,11.09,37.599
			c0.729,0.729,1.494,1.433,2.272,2.092l0.294,0.241c32.075,25.631,63.309,52.74,93.259,80.914
			c-26.838,14.875-50.168,22.271-67.996,21.479c-2.969-0.133-5.679,1.683-6.688,4.479c-1.009,2.797-0.084,5.924,2.286,7.719
			l20.133,15.261l-22.844,21.916c-1.961,1.882-2.611,4.751-1.653,7.293c0.348,0.924,0.882,1.737,1.552,2.407
			c1.177,1.178,2.772,1.905,4.501,1.981c20.176,0.897,42.373-3.433,66.34-12.889c-9.457,23.967-13.786,46.163-12.889,66.339
			c0.077,1.729,0.806,3.325,1.983,4.502c0.67,0.67,1.485,1.204,2.408,1.552c2.542,0.958,5.412,0.311,7.293-1.65l21.917-22.847
			l15.258,20.137c1.796,2.366,4.922,3.295,7.718,2.282c2.795-1.009,4.61-3.72,4.478-6.688c-0.792-17.828,6.604-41.159,21.481-67.999
			c28.188,29.964,55.298,61.198,80.914,93.263l0.244,0.3c0.656,0.774,1.358,1.536,2.086,2.267
			c9.697,9.698,24.457,14.053,37.601,11.094l0.978-0.259c42.17-12.923,68.947-39.7,81.861-81.865c0,0,7.035-21.217-9.47-37.115
			l27.542-17.076C399.419,261.109,401.838,255.832,401.004,250.538z M144.092,45.804c2.646,8.297,5.908,17.908,9.772,28.236
			c-5.276-6.201-10.505-12.439-15.675-18.717L144.092,45.804z M131.16,213.438c-31.956-30.331-65.39-59.482-99.773-86.966
			c-0.182-0.159-0.363-0.328-0.539-0.504c-3.135-3.135-5.27-8.371-4.02-12.497c10.398-33.443,30-53.046,63.446-63.445
			c3.783-1.262,9.22-0.221,13,4.559c2.096,2.622,4.204,5.238,6.319,7.85l4.047,4.964c24.407,29.881,50.045,58.988,76.598,86.963
			L131.16,213.438z M351.141,310.894c-10.395,33.441-29.996,53.047-63.44,63.446c-4.097,0.89-9.366-0.887-12.501-4.021
			c-0.176-0.178-0.346-0.354-0.502-0.535c-27.465-34.371-56.616-67.808-86.964-99.775l59.076-59.075
			c27.979,26.562,57.088,52.198,86.969,76.604l4.957,4.041c2.61,2.115,5.229,4.225,7.854,6.32c0.181,0.156,0.36,0.324,0.535,0.5
			C350.255,301.531,352.291,306.884,351.141,310.894z M345.843,262.979c-6.276-5.17-12.517-10.396-18.72-15.677
			c10.33,3.864,19.943,7.126,28.24,9.773L345.843,262.979z"/>
	</g>
</g>
</svg>
