<?xml version="1.0" encoding="utf-8"?>
<!-- Generator: Adobe Illustrator 16.0.0, SVG Export Plug-In . SVG Version: 6.00 Build 0)  -->
<!DOCTYPE svg PUBLIC "-//W3C//DTD SVG 1.1//EN" "http://www.w3.org/Graphics/SVG/1.1/DTD/svg11.dtd">
<svg version="1.1" id="Capa_1" xmlns="http://www.w3.org/2000/svg" xmlns:xlink="http://www.w3.org/1999/xlink" x="0px" y="0px"
	 width="400px" height="400px" viewBox="320 0 400 400" enable-background="new 320 0 400 400" xml:space="preserve">
<g>
	<g>
		<path fill="#AAAAAA" d="M704.503,80.13l-80.716-23.372v311.672c0,1.558-0.091,3.092-0.258,4.605
			c9.896,0.977,19.392-5.185,22.256-15.083l73.08-251.757C722.099,95.033,715.669,83.36,704.503,80.13z"/>
		<path fill="#AAAAAA" d="M438.973,91.419c-8.624,3.763-16.339,9.22-22.736,15.948h15.585
			C433.841,101.415,436.246,96.066,438.973,91.419z"/>
		<path fill="#AAAAAA" d="M428.007,121.419h-22.145c-4.557,8.133-7.543,17.257-8.518,26.971h27.44
			C425.151,138.776,426.256,129.714,428.007,121.419z"/>
		<path fill="#AAAAAA" d="M517.327,107.367c-6.397-6.726-14.11-12.184-22.735-15.946c2.727,4.646,5.133,9.994,7.152,15.946H517.327z
			"/>
		<path fill="#AAAAAA" d="M416.234,203.465c6.398,6.728,14.112,12.185,22.737,15.947c-2.727-4.646-5.133-9.995-7.152-15.947H416.234
			z"/>
		<path fill="#AAAAAA" d="M494.715,148.39c-0.435-9.826-1.761-18.925-3.714-26.971h-48.438c-1.954,8.046-3.281,17.146-3.715,26.971
			H494.715z"/>
		<path fill="#AAAAAA" d="M466.78,85.622c-6.945,0-14.319,8.202-19.77,21.743h39.542C481.102,93.824,473.729,85.622,466.78,85.622z"
			/>
		<path fill="#AAAAAA" d="M424.784,162.442h-27.44c0.976,9.714,3.962,18.839,8.518,26.971h22.145
			C426.256,181.118,425.151,172.056,424.784,162.442z"/>
		<path fill="#AAAAAA" d="M508.78,148.39h27.439c-0.976-9.714-3.962-18.839-8.518-26.971h-22.144
			C507.309,129.714,508.415,138.776,508.78,148.39z"/>
		<path fill="#AAAAAA" d="M466.78,225.21c6.946,0,14.321-8.202,19.772-21.743h-39.542C452.461,217.008,459.835,225.21,466.78,225.21
			z"/>
		<path fill="#AAAAAA" d="M505.559,189.413h22.143c4.557-8.133,7.543-17.257,8.518-26.971h-27.439
			C508.415,172.056,507.309,181.118,505.559,189.413z"/>
		<path fill="#AAAAAA" d="M393.884,285.709h-12.049v22.937h12.049c9.534,0,14.367-3.923,14.367-11.662
			C408.251,289.502,403.418,285.709,393.884,285.709z"/>
		<polygon fill="#AAAAAA" points="432.709,310.734 449.354,310.734 440.949,292.569 		"/>
		<path fill="#AAAAAA" d="M581.696,0H351.869c-17.407,0-31.57,14.162-31.57,31.57v336.861c0,17.407,14.163,31.569,31.57,31.569
			h229.828c17.407,0,31.568-14.162,31.568-31.57V31.57C613.264,14.162,599.104,0,581.696,0z M466.78,71.57
			c46.232,0,83.845,37.612,83.845,83.845c0,46.232-37.612,83.845-83.845,83.845c-46.23,0-83.842-37.612-83.842-83.845
			C382.938,109.185,420.55,71.57,466.78,71.57z M381.834,319.659v13.304c0,2.905-2.355,5.262-5.261,5.262h-0.495
			c-2.905,0-5.262-2.355-5.262-5.262v-53.015c0-2.905,2.355-5.261,5.262-5.261h17.806c15.659,0,25.385,8.543,25.385,22.295
			c0,13.988-9.727,22.677-25.385,22.677H381.834L381.834,319.659z M470.428,335.794c-0.967,1.514-2.639,2.431-4.435,2.431h-0.616
			c-2.054,0-3.92-1.196-4.779-3.062l-6.172-13.415h-26.715l-6.099,13.395c-0.854,1.877-2.726,3.081-4.788,3.081h-0.699
			c-1.791,0-3.459-0.911-4.428-2.418c-0.967-1.507-1.102-3.404-0.356-5.033l24.27-53.015c0.857-1.871,2.727-3.07,4.784-3.07h0.504
			c0.003,0,0.007,0,0.01,0h0.515c2.05,0,3.912,1.189,4.773,3.049l24.572,53.015C471.522,332.379,471.395,334.28,470.428,335.794z
			 M493.814,338.225c-7.745,0-15.942-3.27-21.394-8.532c-1.015-0.981-1.596-2.33-1.605-3.741c-0.012-1.413,0.544-2.771,1.543-3.767
			l0.333-0.334c2.053-2.048,5.375-2.049,7.429-0.004c3.223,3.207,8.726,5.362,13.695,5.362c5.559,0,12.049-1.797,12.049-6.861
			c0.042-4.881-2.908-6.551-12.404-9.432c-8.414-2.542-19.926-6.023-19.926-19.502c0-10.004,8.835-16.725,21.982-16.725
			c5.659,0,11.935,1.664,16.379,4.346c1.204,0.727,2.068,1.907,2.397,3.275c0.33,1.369,0.096,2.812-0.647,4.008l-0.216,0.346
			c-1.516,2.438-4.706,3.211-7.169,1.736c-2.688-1.61-7.007-2.69-10.743-2.69c-5.058,0-10.965,1.494-10.965,5.704
			c0,4.559,2.895,6.164,12.192,8.976c8.55,2.585,20.244,6.119,20.139,19.993C516.885,331.038,507.612,338.225,493.814,338.225z
			 M539.681,338.225c-7.746,0-15.944-3.27-21.395-8.534c-1.015-0.979-1.594-2.326-1.605-3.735c-0.014-1.41,0.541-2.768,1.536-3.766
			l0.332-0.332c2.052-2.056,5.379-2.06,7.437-0.012c3.222,3.207,8.727,5.361,13.696,5.361c5.558,0,12.047-1.797,12.047-6.86
			c0.039-4.881-2.909-6.551-12.404-9.432c-8.414-2.544-19.926-6.026-19.926-19.501c0-10.005,8.836-16.726,21.984-16.726
			c5.658,0,11.935,1.665,16.379,4.347c1.21,0.729,2.075,1.914,2.402,3.289s0.086,2.821-0.667,4.018l-0.218,0.346
			c-1.523,2.42-4.703,3.18-7.155,1.712c-2.688-1.608-7.004-2.69-10.741-2.69c-5.061,0-10.968,1.494-10.968,5.705
			c0,4.559,2.896,6.163,12.192,8.975c8.551,2.585,20.245,6.12,20.137,19.994C562.745,331.038,553.477,338.225,539.681,338.225z"/>
		<path fill="#AAAAAA" d="M438.849,162.442c0.435,9.826,1.761,18.926,3.715,26.971h48.438c1.952-8.046,3.279-17.145,3.714-26.971
			H438.849L438.849,162.442z"/>
		<path fill="#AAAAAA" d="M494.592,219.411c8.625-3.763,16.339-9.22,22.735-15.946h-15.583
			C499.725,209.417,497.318,214.764,494.592,219.411z"/>
	</g>
</g>
</svg>
