<?xml version="1.0" encoding="utf-8"?>
<!-- Generator: Adobe Illustrator 16.0.0, SVG Export Plug-In . SVG Version: 6.00 Build 0)  -->
<!DOCTYPE svg PUBLIC "-//W3C//DTD SVG 1.1 Tiny//EN" "http://www.w3.org/Graphics/SVG/1.1/DTD/svg11-tiny.dtd">
<svg version="1.1" baseProfile="tiny" id="Capa_1" xmlns="http://www.w3.org/2000/svg" xmlns:xlink="http://www.w3.org/1999/xlink"
	 x="0px" y="0px" width="492.508px" height="492.508px" viewBox="0 0 492.508 492.508" xml:space="preserve">
<g>
	<g>
		<path fill="#AAAAAA" d="M199.493,402.145c0-10.141-8.221-18.36-18.36-18.36H42.475c-10.139,0-18.36,8.221-18.36,18.36
			c0,3.195,0.818,6.199,2.255,8.816H0v38.067h223.607v-38.067h-26.369C198.674,408.343,199.493,405.34,199.493,402.145z"/>
		<path fill="#AAAAAA" d="M175.898,88.224l117.157,74.396c9.111,4.643,20.43,1.678,26.021-7.129l5.622-8.85
			c5.938-9.354,3.171-21.75-6.183-27.69L204.592,46.608c-9.352-5.939-21.748-3.172-27.688,6.182l-5.622,8.851
			C165.692,70.447,167.82,81.952,175.898,88.224z"/>
		<path fill="#AAAAAA" d="M492.456,372.433l-0.082-1.771l-0.146-1.672c-0.075-1.144-0.235-2.159-0.375-3.204
			c-0.562-4.177-1.521-7.731-2.693-10.946c-2.377-6.386-5.738-11.222-9.866-14.845c-1.027-0.913-2.126-1.714-3.218-2.528
			l-3.271-2.442c-2.172-1.644-4.387-3.219-6.587-4.815c-2.196-1.606-4.419-3.169-6.644-4.729c-2.218-1.571-4.445-3.125-6.691-4.651
			c-4.468-3.089-8.982-6.102-13.51-9.104l-6.812-4.464l-6.85-4.404c-4.58-2.912-9.167-5.813-13.785-8.668
			c-4.611-2.864-9.24-5.703-13.896-8.496l-13.979-8.362l-14.072-8.22l-14.148-8.096l-14.219-7.988l-14.287-7.881l-14.354-7.773
			c-4.803-2.566-9.6-5.137-14.434-7.653c-4.822-2.529-9.641-5.071-14.498-7.548l-4.398,6.928l-22.17-10.449l24.781-39.026
			L165.096,105.23l-60.944,95.974L221.309,275.6l24.781-39.027l18.887,15.623l-4.398,6.929c4.309,3.343,8.656,6.619,12.998,9.91
			c4.331,3.305,8.697,6.553,13.062,9.808l13.139,9.686l13.212,9.578l13.274,9.474l13.346,9.361l13.423,9.241l13.514,9.096
			c4.511,3.025,9.045,6.009,13.603,8.964c4.547,2.967,9.123,5.882,13.707,8.792l6.897,4.324l6.937,4.266
			c4.643,2.818,9.289,5.625,13.984,8.356c2.337,1.384,4.689,2.739,7.055,4.078c2.358,1.35,4.72,2.697,7.106,4
			c2.383,1.312,4.75,2.646,7.159,3.912l3.603,1.922c1.201,0.641,2.395,1.296,3.657,1.837c5.036,2.194,10.841,3.181,17.63,2.614
			c3.409-0.305,7.034-0.949,11.054-2.216c1.007-0.317,1.992-0.606,3.062-1.023l1.574-0.579l1.639-0.681
			c2.185-0.91,4.523-2.062,7.06-3.521C492.513,377.405,492.561,374.799,492.456,372.433z"/>
		<path fill="#AAAAAA" d="M67.897,261.877l113.922,72.341c9.354,5.938,21.75,3.172,27.689-6.181l5.621-8.853
			c5.592-8.808,3.462-20.311-4.615-26.583L93.358,218.207c-9.111-4.642-20.43-1.678-26.022,7.13l-5.62,8.85
			C55.775,243.541,58.543,255.938,67.897,261.877z"/>
	</g>
</g>
</svg>
