<?xml version="1.0" encoding="utf-8"?>
<!-- Generator: Adobe Illustrator 16.0.0, SVG Export Plug-In . SVG Version: 6.00 Build 0)  -->
<!DOCTYPE svg PUBLIC "-//W3C//DTD SVG 1.1//EN" "http://www.w3.org/Graphics/SVG/1.1/DTD/svg11.dtd">
<svg version="1.1" id="Capa_1" xmlns="http://www.w3.org/2000/svg" xmlns:xlink="http://www.w3.org/1999/xlink" x="0px" y="0px"
	 width="45.896px" height="45.895px" viewBox="0 0 45.896 45.895" enable-background="new 0 0 45.896 45.895" xml:space="preserve">
<g>
	<g>
		<path fill="#AAAAAA" d="M15.355,31.558c0.978,0,1.938-0.095,2.876-0.274c-2.034-1.667-3.705-3.802-4.838-6.291
			c-0.348-0.079-0.69-0.178-1.029-0.299c-4.632-1.647-7.06-6.759-5.411-11.393c1.264-3.547,4.641-5.931,8.403-5.931
			c1.015,0,2.021,0.175,2.99,0.52c4.633,1.65,7.061,6.76,5.41,11.394c-0.125,0.351-0.271,0.688-0.435,1.017
			c0.003,0.008,0.006,0.017,0.01,0.026c0.914,2.106,2.841,3.55,5.067,3.888c0.532-0.875,0.98-1.812,1.334-2.801
			c2.822-7.93-1.332-16.674-9.259-19.497c-1.653-0.588-3.376-0.888-5.118-0.888c-6.439,0-12.217,4.078-14.378,10.146
			C-1.53,18.22,1.471,25.911,7.734,29.517l-1.871,5.255L5.227,33.43c-0.651-1.369-2.288-1.953-3.658-1.303
			c-1.37,0.649-1.953,2.289-1.302,3.658l3.568,7.514c0.471,0.99,1.454,1.568,2.481,1.568c0.395,0,0.795-0.085,1.176-0.267
			l7.139-3.391c1.37-0.65,1.953-2.289,1.304-3.657c-0.65-1.371-2.287-1.954-3.657-1.302l-1.341,0.637l1.969-5.531
			C13.714,31.49,14.534,31.558,15.355,31.558z"/>
		<path fill="#AAAAAA" d="M45.668,33.191c-0.603-1.392-2.217-2.027-3.607-1.428l-3.022,1.311l-1.166-2.689
			c2.564-1.707,4.551-4.142,5.709-7.065c1.5-3.79,1.436-7.938-0.187-11.678c-2.42-5.59-7.92-9.2-14.012-9.2
			c-1.168,0-2.06,0.089-3.187,0.353c2.214,1.409,3.812,3.354,4.923,6.177c2.922,0.513,5.246,2.408,6.453,5.192
			c0.946,2.186,0.984,4.608,0.109,6.824c-0.877,2.216-2.562,3.957-4.75,4.903c-1.132,0.488-2.32,0.736-3.537,0.736
			c-0.53,0-1.054-0.047-1.562-0.139c-2.916-0.517-5.423-2.459-6.627-5.238c-0.911-2.104-0.979-4.428-0.204-6.573
			c0.03-0.084,0.062-0.168,0.096-0.253c0.174-0.438,0.387-0.852,0.62-1.25c-1.053-1.789-2.682-3.142-4.661-3.847
			c-0.117-0.041-0.237-0.061-0.354-0.096c-0.592,0.89-1.101,1.843-1.502,2.858c-0.021,0.053-0.04,0.104-0.061,0.157
			c-1.437,3.749-1.351,7.833,0.246,11.521c1.815,4.191,5.362,7.271,9.591,8.547c1.409,0.427,2.896,0.652,4.42,0.652
			c1.165,0,2.312-0.146,3.436-0.408l1.168,2.693l-3.022,1.311c-1.392,0.603-2.03,2.219-1.429,3.609
			c0.447,1.037,1.459,1.654,2.521,1.654c0.364,0,0.732-0.072,1.089-0.228l3.021-1.309l1.116,2.575
			c0.447,1.035,1.457,1.654,2.521,1.654c0.363,0,0.733-0.073,1.089-0.227c1.392-0.604,2.031-2.219,1.429-3.609l-1.117-2.576
			l3.024-1.309C45.633,36.198,46.272,34.583,45.668,33.191z"/>
	</g>
</g>
</svg>
