<?xml version="1.0" encoding="utf-8"?>
<!-- Generator: Adobe Illustrator 16.0.0, SVG Export Plug-In . SVG Version: 6.00 Build 0)  -->
<!DOCTYPE svg PUBLIC "-//W3C//DTD SVG 1.1 Tiny//EN" "http://www.w3.org/Graphics/SVG/1.1/DTD/svg11-tiny.dtd">
<svg version="1.1" baseProfile="tiny" id="Capa_1" xmlns="http://www.w3.org/2000/svg" xmlns:xlink="http://www.w3.org/1999/xlink"
	 x="0px" y="0px" width="415.531px" height="415.531px" viewBox="0 0 415.531 415.531" xml:space="preserve">
<path fill="none" stroke="#AAAAAA" stroke-width="24" stroke-linecap="round" stroke-miterlimit="10" d="M334.839,260.686
	c0-75.339-56.895-136.414-127.073-136.414c-70.18,0-127.072,61.075-127.072,136.414"/>
<path fill="none" stroke="#AAAAAA" stroke-width="24" stroke-linecap="round" stroke-miterlimit="10" d="M110.994,260.686
	c0-58.854,43.327-106.562,96.772-106.562c53.446,0,96.771,47.709,96.771,106.562"/>
<path fill="none" stroke="#AAAAAA" stroke-width="24" stroke-linecap="round" stroke-miterlimit="10" d="M271.676,260.686
	c0-38.338-28.61-77.283-63.909-77.283c-35.297,0-63.912,38.945-63.912,77.283"/>
<path fill="none" stroke="#AAAAAA" stroke-width="22" stroke-linecap="round" stroke-miterlimit="10" d="M334.838,291.26"/>
<path fill="none" stroke="#AAAAAA" stroke-width="22" stroke-linecap="round" stroke-miterlimit="10" d="M53.299,321.347"/>
<path fill="none" stroke="#AAAAAA" stroke-width="36" stroke-linecap="round" stroke-linejoin="round" stroke-miterlimit="10" d="
	M397.758,386.424c0,6.061-4.914,10.973-10.974,10.973H28.746c-6.061,0-10.974-4.912-10.974-10.973V28.385
	c0-6.06,4.913-10.974,10.974-10.974h358.038c6.06,0,10.974,4.914,10.974,10.974V386.424z"/>
</svg>
