<?xml version="1.0" encoding="utf-8"?>
<!-- Generator: Adobe Illustrator 16.0.0, SVG Export Plug-In . SVG Version: 6.00 Build 0)  -->
<!DOCTYPE svg PUBLIC "-//W3C//DTD SVG 1.1//EN" "http://www.w3.org/Graphics/SVG/1.1/DTD/svg11.dtd">
<svg version="1.1" id="Capa_1" xmlns="http://www.w3.org/2000/svg" xmlns:xlink="http://www.w3.org/1999/xlink" x="0px" y="0px"
	 width="466.475px" height="466.476px" viewBox="0 0 466.475 466.476" enable-background="new 0 0 466.475 466.476"
	 xml:space="preserve">
<g>
	<g>
		<path fill="#AAAAAA" d="M386.202,68.43c-4.422,0-8.812,0.36-13.141,1.074c-14.695-22.383-40-36.352-67.164-36.352
			c-15.326,0-30.312,4.416-43.129,12.586c-13.992-8.262-29.821-12.586-46.325-12.586c-50.438,0-91.474,41.075-91.474,91.564
			c0,4.499,0.332,8.922,0.961,13.25c-8.277,7.981-12.322,18.538-12.835,33.102c-0.002,0.056-0.003,0.111-0.003,0.169l0.047,0.001
			l-0.03,31.192l-0.01,0.003c-0.22,0.064-0.437,0.145-0.646,0.238c-3.233,1.455-4.927,0.799-5.33,7.595
			c-0.457,7.741,0.888,28.19,9.237,33.292c1.251,1.283,2.076,4.788,2.57,8.688c0.924,7.297,1.972,15.567,6.088,20.981
			c9.372,12.327,6.91,31.403,6.701,32.886c-0.033,0.021-0.078,0.049-0.139,0.078c-5.774,2.592-7.292,7.643-8.399,11.336
			l-0.568,1.832c-1.495,4.816-2.908,9.371-4.854,13.693c-0.263,0.377-1.392,1.271-2.854,1.822l-4.267,1.637
			c-26.977,10.342-54.87,21.033-80.775,35.354C5.375,385.4,0.227,458.707,0.02,461.033c-0.125,1.396,0.344,2.783,1.292,3.818
			c0.948,1.035,2.286,1.625,3.689,1.625h178.672h178.676c1.4,0,2.74-0.59,3.688-1.625s1.416-2.422,1.291-3.818
			c-0.207-2.326-5.354-75.633-29.842-89.168c-25.906-14.32-53.799-25.014-80.775-35.355l-4.268-1.637
			c-1.463-0.553-2.592-1.445-2.854-1.82c-1.947-4.322-3.359-8.879-4.855-13.693l-0.566-1.834c-1.107-3.691-2.625-8.742-8.4-11.336
			c-0.061-0.027-0.105-0.056-0.139-0.076c-0.209-1.48-2.669-20.56,6.701-32.887c4.115-5.414,5.164-13.688,6.088-20.98
			c0.494-3.898,1.318-7.404,2.57-8.688c2.17-1.325,3.863-3.692,5.18-6.601c1.227,0.969,2.479,1.91,3.768,2.812
			c13.52,9.47,29.416,14.476,45.965,14.476c23.424,0,45.383-10.147,60.535-27.578c6.428,1.634,13.043,2.458,19.77,2.458
			c44.262,0,80.271-36.044,80.271-80.349C466.472,104.472,430.462,68.43,386.202,68.43z M386.202,202.025
			c-6.803,0-13.426-1.268-19.686-3.769l-10.223-4.083l-6.092,9.168c-9.9,14.904-26.465,23.802-44.305,23.802
			c-21.854,0-41.803-13.721-49.646-34.143l-2.01-5.235l0.004-16.524c-0.004-3.928-0.244-7.535-0.723-10.835
			c1.076,0.265,2.193,0.42,3.352,0.42c7.732,0,14-6.268,14-14s-6.268-14-14-14c-5.395,0-10.066,3.055-12.406,7.525
			c-0.639-0.614-1.299-1.205-2.002-1.747c-3.5-2.695-7.52-5.218-11.404-7.658c-5.379-3.376-10.94-6.868-12.955-9.599
			c-4.397-5.964-18.997-6.608-25.069-6.608c-7.162,0-22.967,0.943-40.917,7.965c1.067-34.617,29.501-62.453,64.324-62.453
			c14.027,0,27.355,4.436,38.547,12.829l8.594,6.445l8.236-6.896c9.531-7.982,21.633-12.378,34.078-12.378
			c20.473,0,39.355,11.989,48.105,30.544l5.037,10.68l11.27-3.529c5.123-1.604,10.469-2.417,15.893-2.417
			c29.316,0,53.17,23.887,53.17,53.247C439.374,178.138,415.521,202.025,386.202,202.025z"/>
		<circle fill="#AAAAAA" cx="358.493" cy="279.284" r="22.354"/>
		<circle fill="#AAAAAA" cx="292.493" cy="300.86" r="14.355"/>
		<circle fill="#AAAAAA" cx="301.874" cy="146.826" r="14"/>
		<circle fill="#AAAAAA" cx="346.874" cy="146.826" r="14"/>
	</g>
</g>
</svg>
