<?xml version="1.0" encoding="utf-8"?>
<!-- Generator: Adobe Illustrator 16.0.0, SVG Export Plug-In . SVG Version: 6.00 Build 0)  -->
<!DOCTYPE svg PUBLIC "-//W3C//DTD SVG 1.1//EN" "http://www.w3.org/Graphics/SVG/1.1/DTD/svg11.dtd">
<svg version="1.1" id="Capa_1" xmlns="http://www.w3.org/2000/svg" xmlns:xlink="http://www.w3.org/1999/xlink" x="0px" y="0px"
	 width="45.844px" height="45.844px" viewBox="0 0 45.844 45.844" enable-background="new 0 0 45.844 45.844" xml:space="preserve">
<g>
	<g>
		<path fill="#AAAAAA" d="M39.454,39.057c0.804-0.896,1.071-2.035,0.694-3.233c-0.015-0.046-3.482-11.505-3.482-11.505
			c-0.377-1.248-1.525-2.079-2.83-2.079h-4.535v5.823c0,3.529-2.881,6.4-6.411,6.4c-3.529,0-6.412-2.871-6.412-6.4v-5.823h-3.67
			c-1.303,0-2.453,0.826-2.828,2.075c-2.766,9.625-2.795,9.728-3.942,13.082c-0.269,0.789-0.548,1.625-0.548,2.511
			c0,3.259,2.65,5.938,5.908,5.938H37.41c1.205,0,2.291-0.763,2.74-1.882c0.449-1.12,0.127-2.368-0.695-3.249
			C39.123,40.359,38.896,39.682,39.454,39.057z M37.409,42.779H11.398c-1.632,0-2.955-1.319-2.955-2.95
			c0-1.632,1.323-2.95,2.955-2.95H37.41C35.823,38.467,35.823,41.305,37.409,42.779z"/>
		<path fill="#AAAAAA" d="M14.545,14.862h4.884v13.201c0,1.903,1.558,3.446,3.461,3.446c1.903,0,3.461-1.543,3.461-3.446V14.862
			h4.92c1.903,0,3.446-1.557,3.446-3.46c0-1.904-1.543-3.461-3.446-3.461h-4.92V3.447C26.352,1.543,24.793,0,22.89,0
			c-1.903,0-3.461,1.543-3.461,3.447v4.494h-4.884c-1.903,0-3.446,1.558-3.446,3.461C11.099,13.305,12.643,14.862,14.545,14.862z"/>
	</g>
</g>
</svg>
