<?xml version="1.0" encoding="utf-8"?>
<!-- Generator: Adobe Illustrator 16.0.0, SVG Export Plug-In . SVG Version: 6.00 Build 0)  -->
<!DOCTYPE svg PUBLIC "-//W3C//DTD SVG 1.1//EN" "http://www.w3.org/Graphics/SVG/1.1/DTD/svg11.dtd">
<svg version="1.1" id="Capa_1" xmlns="http://www.w3.org/2000/svg" xmlns:xlink="http://www.w3.org/1999/xlink" x="0px" y="0px"
	 width="400px" height="400px" viewBox="320 0 400 400" enable-background="new 320 0 400 400" xml:space="preserve">
<g>
	<path fill="#AAAAAA" d="M680.419,30.536H440.632c-21.856,0-39.583,17.728-39.583,39.583v37.254h34.349V77.287
		c0-8.324,6.734-15.058,15.058-15.058h220.14c8.325,0,15.058,6.734,15.058,15.058v141.577c0,8.327-6.732,15.059-15.058,15.059
		H568.02v49.395c0,0-0.146,65.635-0.168,66.201c-0.277,6.942-2.29,13.387-5.562,19.064h71.276c8.324,0,15.056-6.729,15.056-15.056
		v-19.252c0-8.325-6.731-15.058-15.056-15.058h-36.743v-26.709h83.596c21.856,0,39.581-17.727,39.581-39.584V70.118
		C720,48.264,702.275,30.536,680.419,30.536z M660.971,273.217c-6.829,0-12.351-5.537-12.351-12.359
		c0-6.812,5.521-12.338,12.351-12.338c6.809,0,12.345,5.525,12.345,12.338C673.315,267.68,667.779,273.217,660.971,273.217z"/>
	<path fill="#AAAAAA" d="M526.188,127.573H384.294c-11.94,0-21.634,9.694-21.634,21.635v30.284h29.695v-17.977h125.772v148.654
		h-69.844v24.054c2.013-1.408,4.313-2.42,6.96-2.42c6.811,0,12.349,5.524,12.349,12.337c0,6.822-5.538,12.357-12.349,12.357
		c-2.646,0-4.947-1.01-6.96-2.417v3.525c0,4.192-0.867,8.15-2.26,11.857h80.165c11.938,0,21.634-9.688,21.634-21.63V149.208
		C547.822,137.267,538.127,127.573,526.188,127.573z"/>
	<path fill="#AAAAAA" d="M414.592,197.615h-81.099c-7.458,0-13.493,6.036-13.493,13.49v144.419c0,7.458,6.036,13.495,13.493,13.495
		h81.099c7.456,0,13.495-6.037,13.495-13.495V211.105C428.087,203.651,422.048,197.615,414.592,197.615z M374.048,361.326
		c-5.731,0-10.388-4.656-10.388-10.401c0-5.721,4.656-10.363,10.388-10.363c5.721,0,10.377,4.644,10.377,10.363
		C384.426,356.67,379.77,361.326,374.048,361.326z M406.163,319.205h-64.228v-94.748h64.229L406.163,319.205L406.163,319.205z"/>
</g>
</svg>
